<svg id="Layer_1" data-name="Layer 1" xmlns="http://www.w3.org/2000/svg" width="248.49" height="231" viewBox="0 0 248.49 231"><title>logocryptofair</title><path d="M138,48.51l-1.69-.17c-.23-.11-.49,0-.73-.1l-.73,0c-.28-.12-.59,0-.88-.1l-.87,0c-.37-.14-.77,0-1.14-.1a6.33,6.33,0,0,0-1.4,0c-.92-.16-1.84,0-2.76-.1H126c-.91.13-1.84-.06-2.75.1l-1.41,0c-.37.11-.77,0-1.14.1l-.88,0c-.28.1-.59,0-.87.1l-.74,0c-.23.09-.49,0-.71.09l-.5,0c-.23.1-.49,0-.72.1-1.51.08-3,.38-4.48.6-2.2.33-4.38.8-6.55,1.31-2,.47-3.9,1-5.82,1.63a90,90,0,0,0-20.64,9.5c-2.35,1.46-4.63,3-6.82,4.7-.31.24-.49.22-.71-.07-1-1.39-2.17-2.7-3.26-4s-2.19-2.69-3.32-4c-.47-.55-.93-1.11-1.39-1.66-.29-.34.09-.45.24-.56,1.1-.82,2.21-1.61,3.32-2.42a97.8,97.8,0,0,1,15.75-9.28A102.86,102.86,0,0,1,97,38.62a105.59,105.59,0,0,1,15.18-3.39c1.56-.23,3.13-.4,4.7-.6.24-.09.5,0,.74-.1.78-.17,1.1.22,1.43.91a15.8,15.8,0,0,0,10.52,8.84,5.9,5.9,0,0,0,2.15.32c.23.11.5,0,.73.09a11.48,11.48,0,0,0,2.15,0c.24-.09.51,0,.74-.1a11.87,11.87,0,0,0,4.07-1,16.53,16.53,0,0,0,6.06-4.31,17.78,17.78,0,0,0,2-2.82.56.56,0,0,1,.7-.29,105.63,105.63,0,0,1,19.36,5.92,103.51,103.51,0,0,1,20.91,11.7,104.6,104.6,0,0,1,11.27,9.38q1.4,1.35,2.78,2.72c.27.27.34.46,0,.8q-4.58,4.53-9.12,9.11c-.4.41-.6.31-.95,0-1.3-1.33-2.59-2.66-4-3.91-1.8-1.64-3.68-3.2-5.59-4.71-2.38-1.88-4.88-3.58-7.42-5.22-1.86-1.21-3.81-2.29-5.76-3.35s-4.26-2.16-6.45-3.12a87.8,87.8,0,0,0-8.82-3.32c-2.15-.68-4.32-1.26-6.51-1.79-1.59-.38-3.18-.71-4.78-1a20.39,20.39,0,0,0-3.86-.55c-.22,0-.38-.25-.62-.15C138.47,48.48,138.22,48.62,138,48.51Z" transform="translate(-4.75 -14)"/><path d="M217.34,127.52c-.23-2-.53-3.93-.93-5.86-.5-2.41-1-4.82-1.71-7.18-.41-1.31-.7-2.65-1.15-3.94-.79-2.26-1.59-4.52-2.54-6.72s-1.86-4.31-2.94-6.39A91.66,91.66,0,0,0,201.79,87c-1.06-1.5-2.12-3-3.3-4.42-.24-.29-.24-.49,0-.74s.79-.79,1.19-1.18l7.88-7.88c.58-.58.63-.58,1.12,0a109.72,109.72,0,0,1,9.58,14,103.89,103.89,0,0,1,9.16,21.21c0,.06.06.12.08.18.23.8.76,1.68.59,2.38s-1.09,1.18-1.63,1.8a14.88,14.88,0,0,0-3.78,8.23c-.14.22,0,.47-.11.69l0,.75a6.26,6.26,0,0,0,0,1.86,14.78,14.78,0,0,0,3.1,8.61,15.94,15.94,0,0,0,6.3,5,7.82,7.82,0,0,1,0,2.14l0,2.77c-.15.5,0,1-.1,1.52l0,1.16c-.14.36,0,.75-.1,1.12l0,.76c-.12.27,0,.58-.1.85l0,.64c-.13.27,0,.57-.1.84l0,.5c-.12.22,0,.48-.1.71-.4,2.56-.73,5.12-1.21,7.67a103.34,103.34,0,0,1-9,26.85c-.27.55-.62,1.07-.85,1.63s-.52.53-1,.21c-1.18-.86-2.39-1.68-3.59-2.52l-6.6-4.61a.6.6,0,0,1-.22-.91,97.06,97.06,0,0,0,4-9.47,90,90,0,0,0,2.88-9.79c.46-1.95.83-3.92,1.15-5.91.22-1.41.42-2.82.62-4.23a6.58,6.58,0,0,0,.16-1.56c.13-.27,0-.57.1-.84l0-.64c.14-.31,0-.66.1-1l0-1c.14-.41,0-.85.1-1.27l0-1.7a45.22,45.22,0,0,0,0-5.07l0-1.82c-.12-.41,0-.85-.1-1.26l0-1c-.1-.28,0-.59-.1-.86l0-.75c-.11-.27,0-.57-.1-.84l0-.51c-.1-.23,0-.49-.1-.72l0-.49C217.34,128,217.47,127.74,217.34,127.52Z" transform="translate(-4.75 -14)" style="fill:#e62000"/><path d="M36.13,131.18l0,.74c-.13.32,0,.68-.1,1l0,1c-.14.5,0,1-.1,1.53a23,23,0,0,0,0,2.89,3.23,3.23,0,0,0,0,1.32,22.53,22.53,0,0,0,0,2.78c.12.51,0,1,.1,1.54l0,1c.11.33,0,.68.1,1l0,.87c.09.24,0,.5.09.73l0,.61c.1.23,0,.49.1.73l0,.48c.11.23,0,.48.1.71a33.37,33.37,0,0,0,.71,5.12A89.15,89.15,0,0,0,40.8,169c.53,1.51,1.06,3,1.72,4.49.19.42.09.64-.3.89-3.31,2.13-6.6,4.28-9.9,6.42a4.71,4.71,0,0,1-.43.22c-.62-1.53-1.25-3-1.84-4.54q-1.48-3.77-2.64-7.66c-.5-1.69-1-3.37-1.4-5.08s-.87-3.6-1.16-5.43c-.24-1.48-.59-2.94-.81-4.42s-.3-2.76-.44-4.15c-.1-.23,0-.49-.1-.71l0-.63c-.11-.27,0-.57-.1-.84l0-.77c-.11-.32,0-.67-.1-1l0-1c-.11-.42,0-.86-.1-1.27l0-1.81q-.1-3.08,0-6.17l0-1.69c.14-.46,0-.94.1-1.39l0-1c.13-.33,0-.68.1-1l0-.74c.11-.23,0-.5.09-.73l0-.74c.11-.24,0-.5.1-.74l0-.49c.12-.23,0-.49.1-.71l0-.47c.1-.2,0-.51.29-.59a15.14,15.14,0,0,0,5.36-2.8,15.1,15.1,0,0,0,3.6-4,14.47,14.47,0,0,0,2.16-5.54,10.38,10.38,0,0,0,.26-1.85,8.26,8.26,0,0,0,0-2.15,15.42,15.42,0,0,0-1.1-4.86,15.81,15.81,0,0,0-2.49-4.19c-.05-.07-.08-.16-.13-.22-.89-1-.83-.93-.29-2.14,1-2.3,2-4.62,3.2-6.84A116.05,116.05,0,0,1,41.28,79.5c1.78-2.58,3.64-5.1,5.65-7.5,1.55-1.84,3.12-3.66,4.81-5.39,1-1.05,2-2.14,3.08-3.16.57-.55,1.19-1.06,1.72-1.66s.66-.45,1,0c.85,1.08,1.75,2.14,2.62,3.2l4.73,5.77a3.23,3.23,0,0,0,.37.47c.32.26.15.42-.07.62A91.39,91.39,0,0,0,45.32,98.27a89.37,89.37,0,0,0-7.21,20.07,79.51,79.51,0,0,0-1.62,9.25,1.33,1.33,0,0,0,0,.2c-.13.22,0,.48-.1.7l0,.49c-.12.23,0,.49-.1.71l0,.62C36.1,130.59,36.24,130.9,36.13,131.18Z" transform="translate(-4.75 -14)" style="fill:#00078a"/><path d="M119.46,229.82l.91,0c.36.15.74,0,1.1.1l1.18,0c.63.16,1.27,0,1.9.1l.13,0c1.48.06,1.48.06,1.48,1.52q0,5.69,0,11.37a10.22,10.22,0,0,1-2.28,0l-1.71,0c-.36-.14-.75,0-1.11-.1l-1,0c-.31-.14-.65,0-1-.1l-.77,0c-.22-.12-.48,0-.7-.1l-.65,0c-.22-.13-.47,0-.69-.1a67.93,67.93,0,0,1-8-1.13,105.44,105.44,0,0,1-10.37-2.49c-2.41-.72-4.82-1.46-7.15-2.4-3.33-1.33-6.64-2.72-9.85-4.34-.41-.21-.39-.48-.36-.82a15.43,15.43,0,0,0-1.68-8.57,15.65,15.65,0,0,0-12.76-8.63A15,15,0,0,0,58,215.5a1.12,1.12,0,0,1-1.49-.22,119.33,119.33,0,0,1-11.72-12.81A112.85,112.85,0,0,1,38,192.73c-.85-1.34-1.54-2.77-2.35-4.14-.22-.37-.09-.54.19-.72,3.25-2.1,6.51-4.19,9.75-6.31.39-.26.57-.19.77.19a87.6,87.6,0,0,0,7.77,12.19c1.58,2.1,3.27,4.11,5,6.07s3.41,3.6,5.21,5.32a88.94,88.94,0,0,0,10.18,8.32,90.38,90.38,0,0,0,14.14,8.15,89.17,89.17,0,0,0,18.88,6.31,74.4,74.4,0,0,0,8.26,1.36h.2c.22.13.47,0,.69.1l.51,0c.22.13.47,0,.69.1l.77,0C119,229.84,119.24,229.73,119.46,229.82Z" transform="translate(-4.75 -14)" style="fill:#fee32e"/><path d="M139.3,242.45l-.5,0c-.23.1-.49,0-.72.1l-.63,0c-.27.11-.57,0-.84.1l-.77,0c-.28.1-.59,0-.86.09-.85,0-.85,0-.85-.91q0-5.73,0-11.46c0-.23-.17-.56.23-.66s.57,0,.84-.1l.63,0c.23-.1.49,0,.72-.1a65.36,65.36,0,0,0,8-1.16,86.84,86.84,0,0,0,13.95-3.92c2.43-.9,4.81-1.94,7.16-3a92.52,92.52,0,0,0,13.59-7.89,76.8,76.8,0,0,0,6.23-4.83c1.34-1.14,2.63-2.35,4-3.51a59.07,59.07,0,0,0,5-5,82.71,82.71,0,0,0,6.72-8.39c1.11-1.62,2.28-3.2,3.26-4.92.19-.33.4-.45.81-.16q5.06,3.6,10.18,7.14c.45.31.48.53.19,1a114,114,0,0,1-9.1,12.12c-2.33,2.68-4.84,5.2-7.34,7.71-.89.9-1.69,1.39-3,.64a10.07,10.07,0,0,0-3.36-.94c-.22-.13-.48,0-.7-.1a2.41,2.41,0,0,0-.88,0,3.3,3.3,0,0,0-1.34,0,2.46,2.46,0,0,0-.88,0c-.22.11-.48,0-.7.1a12.58,12.58,0,0,0-4.78,1.42,15.06,15.06,0,0,0-4.52,3.29,15.24,15.24,0,0,0-4.25,9.22c-.13.27,0,.57-.1.84a10.2,10.2,0,0,0,0,1.89,1.31,1.31,0,0,1,0,.8c-1.89.89-3.77,1.82-5.68,2.67-1.58.7-3.2,1.33-4.82,1.95-2.54,1-5.13,1.82-7.74,2.57a93.92,93.92,0,0,1-10,2.31c-2.14.37-4.28.66-6.43,1C139.78,242.46,139.52,242.33,139.3,242.45Z" transform="translate(-4.75 -14)" style="fill:#00a132"/><path d="M118.77,27.68a12.73,12.73,0,0,1,1.37-5.28,14.85,14.85,0,0,1,11.4-8.3c.23-.1.5,0,.73-.1h2.58c.23.12.49,0,.71.1a16.28,16.28,0,0,1,5,1.65,14.59,14.59,0,0,1,7.66,10.82c0,.24.1.48.15.71.12.41,0,.85.1,1.26a.91.91,0,0,0,0,.56c-.14.41,0,.85-.1,1.26a15.28,15.28,0,0,1-3.28,7.8,15.09,15.09,0,0,1-5.54,4.23,15.93,15.93,0,0,1-4,1.15c-.24.1-.5,0-.74.1a22.67,22.67,0,0,1-2.93,0,14.56,14.56,0,0,1-3.41-.79,15.15,15.15,0,0,1-5.69-3.7,15.9,15.9,0,0,1-3.72-6.73,16.48,16.48,0,0,1-.32-2.44A12.73,12.73,0,0,1,118.77,27.68Z" transform="translate(-4.75 -14)"/><path d="M191.55,215.32a15,15,0,0,1,9.67,4.55,14.3,14.3,0,0,1,3.89,7.66c0,.2.1.38.15.58s0,.48.1.71a16,16,0,0,1-1.08,6.9,15,15,0,0,1-12.2,9.2c-.32.11-.67,0-1,.1H190c-.32-.13-.67,0-1-.1a14.18,14.18,0,0,1-9.35-4.63,14.36,14.36,0,0,1-3.67-7.13,6.8,6.8,0,0,0-.17-1.16c-.1-.23,0-.48-.1-.7V229c.12-.23,0-.49.1-.72a14.42,14.42,0,0,1,4.62-9,14.75,14.75,0,0,1,9.1-3.87A10.23,10.23,0,0,1,191.55,215.32Z" transform="translate(-4.75 -14)" style="fill:#00b82f"/><path d="M4.81,108.49a12.37,12.37,0,0,1,1.14-4.6,14.76,14.76,0,0,1,4.15-5.46,14,14,0,0,1,6.18-3,14.55,14.55,0,0,1,14.5,4.75,13.65,13.65,0,0,1,3.46,7.59c0,.24.1.48.15.72a17.24,17.24,0,0,1,0,2.68,15,15,0,0,1-12.92,13.45c-.23.1-.49,0-.72.1h-2.3c-.23-.11-.49,0-.72-.1a14.28,14.28,0,0,1-8.94-4.5,14.51,14.51,0,0,1-3.65-6.77c-.17-.72-.21-1.45-.32-2.18A17.5,17.5,0,0,1,4.81,108.49Z" transform="translate(-4.75 -14)" style="fill:#1f00a1"/><path d="M236.8,137.78a13.53,13.53,0,0,1-4.77-1.29,14.55,14.55,0,0,1-3.44-2.3,14.86,14.86,0,0,1-3.84-5.33,12.73,12.73,0,0,1-1.14-4.67,14,14,0,0,1,0-2.41,13.23,13.23,0,0,1,1.14-4.74,14.57,14.57,0,0,1,11-8.61c.57-.09,1.15-.16,1.72-.24a8.51,8.51,0,0,1,1.87,0,14.91,14.91,0,0,1,9.53,4.33,14.29,14.29,0,0,1,4.17,8.21c0,.26.1.52.15.78a20.6,20.6,0,0,1,0,2.95,15.2,15.2,0,0,1-3,7.52,14.41,14.41,0,0,1-9.34,5.65l-.85.16c-.28.1-.58,0-.86.1h-1.5C237.38,137.76,237.08,137.88,236.8,137.78Z" transform="translate(-4.75 -14)" style="fill:#cf3400"/><path d="M64.65,244.78a14.8,14.8,0,1,1,14.83-14.7A14.82,14.82,0,0,1,64.65,244.78Z" transform="translate(-4.75 -14)" style="fill:#fee92e"/><path d="M167.93,136a27.47,27.47,0,0,0-3.63,2q-13.5,7.72-27,15.47c-2.25,1.29-4.5,2.57-6.74,3.88a.82.82,0,0,1-1,0l-33.3-19-4.53-2.6c0-.35.31-.41.53-.52,2.51-1.23,5.05-2.39,7.58-3.57l7.29-3.4c4.15-1.94,8.3-3.87,12.44-5.83,3.43-1.62,6.9-3.17,10.3-4.86a2.26,2.26,0,0,1,.94.34c3.46,1.73,7,3.37,10.43,5.06,4.3,2.09,8.6,4.16,12.9,6.25,3.72,1.8,7.45,3.57,11.16,5.4.7.35,1.43.63,2.13,1C167.66,135.69,168,135.69,167.93,136Z" transform="translate(-4.75 -14)" style="fill:#989898"/><path d="M167.93,136l-13-6.27-12.13-5.86-12.5-6a3.33,3.33,0,0,1-.39-.26c-.3-.29-.23-.66-.23-1,0-3.55-.09-7.11,0-10.66.25-8.27-.05-16.54.14-24.81.16-6.8,0-13.59.1-20.38a4.68,4.68,0,0,1,.21-1.25l.07-.33c.24.07.26.29.34.45q18.66,37.93,37.31,75.86C168,135.62,168.28,135.82,167.93,136Z" transform="translate(-4.75 -14)" style="fill:#666"/><path d="M130.19,59.49q0,5.36,0,10.73c0,2.88,0,5.77,0,8.65-.15,8.54,0,17.07-.14,25.61-.06,4.38-.06,8.76-.07,13.14a6.06,6.06,0,0,1-2,1.12c-2.41,1.16-4.85,2.26-7.28,3.4l-18.37,8.59q-5,2.36-10.05,4.74a.86.86,0,0,0-.44.29c-.23,0-.45,0-.23-.38,1.77-3.21,3.35-6.52,5-9.79l9.49-18.72,9.11-17.94q4.64-9.15,9.28-18.3,2.73-5.38,5.49-10.75C130,59.74,130.11,59.62,130.19,59.49Z" transform="translate(-4.75 -14)" style="fill:#cbcbcb"/><path d="M130.09,214.4a1.55,1.55,0,0,1-.41-.67l-9.28-18.38q-2.54-5-5.09-10l-5.09-10-5.12-10.11-5.06-10L94.88,145q-1.58-3.11-3.17-6.21a1.36,1.36,0,0,1-.19-.73c.75.42,1.5.83,2.24,1.25l13.8,8,14.08,8.16,8,4.62a1.14,1.14,0,0,0,.57.17,1.4,1.4,0,0,1,.07.59q0,26.15,0,52.3A2.83,2.83,0,0,1,130.09,214.4Z" transform="translate(-4.75 -14)" style="fill:#cbcbcb"/><path d="M130.09,214.4q0-14.4,0-28.79,0-12.28,0-24.57a1.28,1.28,0,0,1,.13-.84l16.34-9.5,21.2-12.35c.2-.12.38-.32.65-.28.09.19-.05.3-.12.43Q149.47,176,130.62,213.58C130.47,213.86,130.42,214.22,130.09,214.4Z" transform="translate(-4.75 -14)" style="fill:#666"/></svg>